<svg xmlns="http://www.w3.org/2000/svg" xmlns:xlink="http://www.w3.org/1999/xlink" width="50" height="51" viewBox="0 0 50 51">
    <defs>
        <path id="a" d="M0 50V.064h49.934V50z"/>
    </defs>
    <g fill="none" fill-rule="evenodd">
        <g transform="translate(0 .66)">
            <mask id="b" fill="#fff">
                <use xlink:href="#a"/>
            </mask>
            <path fill="#0551D8" d="M0 25.032C0 11.243 11.178.064 24.967.064c13.79 0 24.967 11.18 24.967 24.968C49.934 38.822 38.756 50 24.967 50 11.178 50 0 38.822 0 25.032" mask="url(#b)"/>
        </g>
        <path fill="#FFF" d="M19.2 24.25v3.461h5.724c-.23 1.486-1.73 4.355-5.724 4.355-3.447 0-6.259-2.855-6.259-6.374 0-3.519 2.812-6.373 6.259-6.373 1.96 0 3.273.836 4.022 1.557l2.74-2.639C24.203 16.594 21.925 15.6 19.2 15.6A10.087 10.087 0 0 0 9.106 25.692c0 5.58 4.513 10.094 10.094 10.094 5.825 0 9.69-4.095 9.69-9.863 0-.663-.073-1.168-.16-1.673H19.2zM40.828 24.25h-2.884v-2.883h-2.883v2.883h-2.883v2.884h2.883v2.884h2.883v-2.884h2.884z"/>
    </g>
</svg>
