<svg xmlns="http://www.w3.org/2000/svg" xmlns:xlink="http://www.w3.org/1999/xlink" width="50" height="50" viewBox="0 0 50 50">
    <defs>
        <path id="a" d="M49.428 49.611H0V.183h49.428z"/>
    </defs>
    <g fill="none" fill-rule="evenodd">
        <path fill="#0551D8" d="M26.77 22.952v-.046l-.031.046h.031z"/>
        <g transform="translate(0 .407)">
            <mask id="b" fill="#fff">
                <use xlink:href="#a"/>
            </mask>
            <path fill="#0551D8" d="M36.408 34.62h-4.695v-7.556c0-1.897-.678-3.193-2.379-3.193-1.297 0-2.068.872-2.408 1.717-.124.302-.156.721-.156 1.145v7.887h-4.696s.063-12.798 0-14.123h4.696V22.5c.624-.96 1.737-2.334 4.233-2.334 3.089 0 5.405 2.018 5.405 6.356v8.1zM17.13 18.57h-.03c-1.575 0-2.596-1.085-2.596-2.441 0-1.385 1.05-2.44 2.657-2.44s2.594 1.055 2.625 2.44c0 1.356-1.018 2.441-2.656 2.441zm-2.347 16.05h4.695V20.497h-4.695V34.62zM24.713.183C11.064.183 0 11.248 0 24.897c0 13.65 11.064 24.714 24.713 24.714 13.65 0 24.715-11.065 24.715-24.714 0-13.65-11.065-24.714-24.715-24.714z" mask="url(#b)"/>
        </g>
    </g>
</svg>
