<svg xmlns="http://www.w3.org/2000/svg" width="50" height="50" viewBox="0 0 50 50">
    <path fill="#0551D8" fill-rule="evenodd" d="M34.974 19.744c.01.223.015.447.015.672 0 6.865-5.224 14.779-14.778 14.779-2.933 0-5.664-.86-7.962-2.334.406.048.82.073 1.238.073 2.435 0 4.674-.83 6.452-2.224a5.2 5.2 0 0 1-4.852-3.607 5.183 5.183 0 0 0 2.346-.09 5.197 5.197 0 0 1-4.168-5.092l.001-.065c.7.389 1.502.623 2.352.65a5.196 5.196 0 0 1-2.31-4.324c0-.952.256-1.845.703-2.611a14.746 14.746 0 0 0 10.707 5.427 5.194 5.194 0 0 1 5.059-6.377 5.19 5.19 0 0 1 3.791 1.639 10.377 10.377 0 0 0 3.3-1.26 5.213 5.213 0 0 1-2.285 2.873 10.355 10.355 0 0 0 2.983-.817 10.531 10.531 0 0 1-2.592 2.688M24.908 0C11.152 0 0 11.151 0 24.908c0 13.756 11.152 24.908 24.908 24.908 13.756 0 24.908-11.152 24.908-24.908C49.816 11.151 38.664 0 24.908 0"/>
</svg>
